<svg width="17" height="17" viewBox="0 0 17 17" fill="none" xmlns="http://www.w3.org/2000/svg">
<rect x="0.722656" y="0.980469" width="15.98" height="15.98" rx="7.99" fill="#A9C0CB"/>
<g opacity="0.4">
<mask id="path-2-inside-1_2_16522" fill="white">
<path d="M0.722656 8.97047C0.722656 4.55771 4.2999 0.980469 8.71266 0.980469C13.1254 0.980469 16.7027 4.55771 16.7027 8.97047C16.7027 13.3832 13.1254 16.9605 8.71266 16.9605C4.2999 16.9605 0.722656 13.3832 0.722656 8.97047Z"/>
</mask>
<path d="M8.71266 15.9605C4.85219 15.9605 1.72266 12.8309 1.72266 8.97047H-0.277344C-0.277344 13.9355 3.74762 17.9605 8.71266 17.9605V15.9605ZM15.7027 8.97047C15.7027 12.8309 12.5731 15.9605 8.71266 15.9605V17.9605C13.6777 17.9605 17.7027 13.9355 17.7027 8.97047H15.7027ZM8.71266 1.98047C12.5731 1.98047 15.7027 5.11 15.7027 8.97047H17.7027C17.7027 4.00543 13.6777 -0.0195312 8.71266 -0.0195312V1.98047ZM8.71266 -0.0195312C3.74762 -0.0195312 -0.277344 4.00543 -0.277344 8.97047H1.72266C1.72266 5.11 4.85219 1.98047 8.71266 1.98047V-0.0195312Z" fill="black" mask="url(#path-2-inside-1_2_16522)"/>
</g>
</svg>
