<svg width="17" height="16" viewBox="0 0 17 16" fill="none" xmlns="http://www.w3.org/2000/svg">
<rect x="0.271484" y="0.000488281" width="15.98" height="15.98" rx="7.99" fill="#C7C8CA"/>
<g opacity="0.4">
<mask id="path-2-inside-1_2_16024" fill="white">
<path d="M0.271484 7.99049C0.271484 3.57773 3.84873 0.000488281 8.26148 0.000488281C12.6742 0.000488281 16.2515 3.57773 16.2515 7.99049C16.2515 12.4032 12.6742 15.9805 8.26148 15.9805C3.84873 15.9805 0.271484 12.4032 0.271484 7.99049Z"/>
</mask>
<path d="M8.26148 14.9805C4.40101 14.9805 1.27148 11.851 1.27148 7.99049H-0.728516C-0.728516 12.9555 3.29644 16.9805 8.26148 16.9805V14.9805ZM15.2515 7.99049C15.2515 11.851 12.122 14.9805 8.26148 14.9805V16.9805C13.2265 16.9805 17.2515 12.9555 17.2515 7.99049H15.2515ZM8.26148 1.00049C12.122 1.00049 15.2515 4.13002 15.2515 7.99049H17.2515C17.2515 3.02545 13.2265 -0.999512 8.26148 -0.999512V1.00049ZM8.26148 -0.999512C3.29644 -0.999512 -0.728516 3.02545 -0.728516 7.99049H1.27148C1.27148 4.13002 4.40101 1.00049 8.26148 1.00049V-0.999512Z" fill="black" mask="url(#path-2-inside-1_2_16024)"/>
</g>
</svg>
