<svg width="17" height="16" viewBox="0 0 17 16" fill="none" xmlns="http://www.w3.org/2000/svg">
<rect x="0.301758" y="0.000488281" width="15.98" height="15.98" rx="7.99" fill="#4B4F54"/>
<g opacity="0.4">
<mask id="path-2-inside-1_2_16019" fill="white">
<path d="M0.301758 7.99049C0.301758 3.57773 3.879 0.000488281 8.29176 0.000488281C12.7045 0.000488281 16.2818 3.57773 16.2818 7.99049C16.2818 12.4032 12.7045 15.9805 8.29176 15.9805C3.879 15.9805 0.301758 12.4032 0.301758 7.99049Z"/>
</mask>
<path d="M8.29176 14.9805C4.43129 14.9805 1.30176 11.851 1.30176 7.99049H-0.698242C-0.698242 12.9555 3.32672 16.9805 8.29176 16.9805V14.9805ZM15.2818 7.99049C15.2818 11.851 12.1522 14.9805 8.29176 14.9805V16.9805C13.2568 16.9805 17.2818 12.9555 17.2818 7.99049H15.2818ZM8.29176 1.00049C12.1522 1.00049 15.2818 4.13002 15.2818 7.99049H17.2818C17.2818 3.02545 13.2568 -0.999512 8.29176 -0.999512V1.00049ZM8.29176 -0.999512C3.32672 -0.999512 -0.698242 3.02545 -0.698242 7.99049H1.30176C1.30176 4.13002 4.43129 1.00049 8.29176 1.00049V-0.999512Z" fill="black" mask="url(#path-2-inside-1_2_16019)"/>
</g>
</svg>
