<svg width="17" height="16" viewBox="0 0 17 16" fill="none" xmlns="http://www.w3.org/2000/svg">
<rect x="0.480469" y="0.000488281" width="15.98" height="15.98" rx="7.99" fill="#F9F9F9"/>
<g opacity="0.4">
<mask id="path-2-inside-1_2_9098" fill="white">
<path d="M0.480469 7.99049C0.480469 3.57773 4.05771 0.000488281 8.47047 0.000488281C12.8832 0.000488281 16.4605 3.57773 16.4605 7.99049C16.4605 12.4032 12.8832 15.9805 8.47047 15.9805C4.05771 15.9805 0.480469 12.4032 0.480469 7.99049Z"/>
</mask>
<path d="M8.47047 14.9805C4.61 14.9805 1.48047 11.851 1.48047 7.99049H-0.519531C-0.519531 12.9555 3.50543 16.9805 8.47047 16.9805V14.9805ZM15.4605 7.99049C15.4605 11.851 12.3309 14.9805 8.47047 14.9805V16.9805C13.4355 16.9805 17.4605 12.9555 17.4605 7.99049H15.4605ZM8.47047 1.00049C12.3309 1.00049 15.4605 4.13002 15.4605 7.99049H17.4605C17.4605 3.02545 13.4355 -0.999512 8.47047 -0.999512V1.00049ZM8.47047 -0.999512C3.50543 -0.999512 -0.519531 3.02545 -0.519531 7.99049H1.48047C1.48047 4.13002 4.61 1.00049 8.47047 1.00049V-0.999512Z" fill="black" mask="url(#path-2-inside-1_2_9098)"/>
</g>
</svg>
