<svg width="17" height="16" viewBox="0 0 17 16" fill="none" xmlns="http://www.w3.org/2000/svg">
<rect x="0.522461" y="0.000488281" width="15.98" height="15.98" rx="7.99" fill="black"/>
<g opacity="0.4">
<mask id="path-2-inside-1_2_9089" fill="white">
<path d="M0.522461 7.99049C0.522461 3.57773 4.09971 0.000488281 8.51246 0.000488281C12.9252 0.000488281 16.5025 3.57773 16.5025 7.99049C16.5025 12.4032 12.9252 15.9805 8.51246 15.9805C4.09971 15.9805 0.522461 12.4032 0.522461 7.99049Z"/>
</mask>
<path d="M8.51246 14.9805C4.65199 14.9805 1.52246 11.851 1.52246 7.99049H-0.477539C-0.477539 12.9555 3.54742 16.9805 8.51246 16.9805V14.9805ZM15.5025 7.99049C15.5025 11.851 12.3729 14.9805 8.51246 14.9805V16.9805C13.4775 16.9805 17.5025 12.9555 17.5025 7.99049H15.5025ZM8.51246 1.00049C12.3729 1.00049 15.5025 4.13002 15.5025 7.99049H17.5025C17.5025 3.02545 13.4775 -0.999512 8.51246 -0.999512V1.00049ZM8.51246 -0.999512C3.54742 -0.999512 -0.477539 3.02545 -0.477539 7.99049H1.52246C1.52246 4.13002 4.65199 1.00049 8.51246 1.00049V-0.999512Z" fill="black" mask="url(#path-2-inside-1_2_9089)"/>
</g>
</svg>
