<svg width="17" height="16" viewBox="0 0 17 16" fill="none" xmlns="http://www.w3.org/2000/svg">
<rect x="0.282227" y="0.000488281" width="15.98" height="15.98" rx="7.99" fill="#E9E9E9"/>
<g opacity="0.4">
<mask id="path-2-inside-1_2_9006" fill="white">
<path d="M0.282227 7.99049C0.282227 3.57773 3.85947 0.000488281 8.27223 0.000488281C12.685 0.000488281 16.2622 3.57773 16.2622 7.99049C16.2622 12.4032 12.685 15.9805 8.27223 15.9805C3.85947 15.9805 0.282227 12.4032 0.282227 7.99049Z"/>
</mask>
<path d="M8.27223 14.9805C4.41176 14.9805 1.28223 11.851 1.28223 7.99049H-0.717773C-0.717773 12.9555 3.30719 16.9805 8.27223 16.9805V14.9805ZM15.2622 7.99049C15.2622 11.851 12.1327 14.9805 8.27223 14.9805V16.9805C13.2373 16.9805 17.2622 12.9555 17.2622 7.99049H15.2622ZM8.27223 1.00049C12.1327 1.00049 15.2622 4.13002 15.2622 7.99049H17.2622C17.2622 3.02545 13.2373 -0.999512 8.27223 -0.999512V1.00049ZM8.27223 -0.999512C3.30719 -0.999512 -0.717773 3.02545 -0.717773 7.99049H1.28223C1.28223 4.13002 4.41176 1.00049 8.27223 1.00049V-0.999512Z" fill="black" mask="url(#path-2-inside-1_2_9006)"/>
</g>
</svg>
