<svg width="17" height="16" viewBox="0 0 17 16" fill="none" xmlns="http://www.w3.org/2000/svg">
<rect x="0.501953" y="0.000488281" width="15.98" height="15.98" rx="7.99" fill="#E9E9E9"/>
<g opacity="0.4">
<mask id="path-2-inside-1_2_9095" fill="white">
<path d="M0.501953 7.99049C0.501953 3.57773 4.0792 0.000488281 8.49195 0.000488281C12.9047 0.000488281 16.482 3.57773 16.482 7.99049C16.482 12.4032 12.9047 15.9805 8.49195 15.9805C4.0792 15.9805 0.501953 12.4032 0.501953 7.99049Z"/>
</mask>
<path d="M8.49195 14.9805C4.63148 14.9805 1.50195 11.851 1.50195 7.99049H-0.498047C-0.498047 12.9555 3.52691 16.9805 8.49195 16.9805V14.9805ZM15.482 7.99049C15.482 11.851 12.3524 14.9805 8.49195 14.9805V16.9805C13.457 16.9805 17.482 12.9555 17.482 7.99049H15.482ZM8.49195 1.00049C12.3524 1.00049 15.482 4.13002 15.482 7.99049H17.482C17.482 3.02545 13.457 -0.999512 8.49195 -0.999512V1.00049ZM8.49195 -0.999512C3.52691 -0.999512 -0.498047 3.02545 -0.498047 7.99049H1.50195C1.50195 4.13002 4.63148 1.00049 8.49195 1.00049V-0.999512Z" fill="black" mask="url(#path-2-inside-1_2_9095)"/>
</g>
</svg>
