<svg xmlns="http://www.w3.org/2000/svg" xmlns:xlink="http://www.w3.org/1999/xlink" width="80" height="34" viewBox="0 0 80 34">
  <defs>
    <clipPath id="clip-path">
      <rect id="사각형_3932" data-name="사각형 3932" width="48.548" height="16.741" fill="none"/>
    </clipPath>
  </defs>
  <g id="그룹_9185" data-name="그룹 9185" transform="translate(13988 -4550.445)">
    <rect id="logo-lpoint-on" width="80" height="34" transform="translate(-13988 4550.445)" fill="#fff"/>
    <g id="그룹_9285" data-name="그룹 9285" transform="translate(-13972.104 4558.856)">
      <g id="그룹_9285-2" data-name="그룹 9285" clip-path="url(#clip-path)">
        <path id="패스_8987" data-name="패스 8987" d="M101.656,14.443l-2.329,5.305-2.635-5.305H94.666L98.4,21.8,96.86,25.241h1.966l4.8-10.8Zm-8.112,8.2H91.619v-.766a3.744,3.744,0,0,1-2.532.933,4.143,4.143,0,0,1-4.106-4.269,4.143,4.143,0,0,1,4.106-4.269,3.744,3.744,0,0,1,2.532.933v-.766h1.925Zm-1.7-4.1a2.519,2.519,0,1,0-5.022,0,2.519,2.519,0,1,0,5.022,0m-16.431,6.7h2.009v-3.29a3.739,3.739,0,0,0,2.448.863,4.143,4.143,0,0,0,4.106-4.269,4.143,4.143,0,0,0-4.106-4.269,3.744,3.744,0,0,0-2.532.933v-.766H75.414Zm4.21-9.417a2.567,2.567,0,0,1,2.511,2.72,2.519,2.519,0,1,1-5.022,0,2.567,2.567,0,0,1,2.511-2.72" transform="translate(-55.074 -10.426)" fill="#03c75a"/>
        <path id="패스_8988" data-name="패스 8988" d="M16.741,8.37A8.37,8.37,0,1,1,8.37,0a8.371,8.371,0,0,1,8.371,8.37M9.771,4.436V8.646L6.848,4.436H4.436V12.3H6.97V8.095L9.893,12.3H12.3V4.436Z" fill="#03c75a"/>
      </g>
    </g>
  </g>
</svg>
