<svg width="37" height="36" viewBox="0 0 37 36" fill="none" xmlns="http://www.w3.org/2000/svg">
<g clip-path="url(#clip0_1_12608)">
<g clip-path="url(#clip1_1_12608)">
<g clip-path="url(#clip2_1_12608)">
<path fill-rule="evenodd" clip-rule="evenodd" d="M18.845 36C28.786 36 36.845 27.941 36.845 18C36.845 8.059 28.786 0 18.845 0C8.90397 0 0.844971 8.059 0.844971 18C0.844971 27.941 8.90397 36 18.845 36Z" fill="#FAFAFA"/>
<path fill-rule="evenodd" clip-rule="evenodd" d="M18.845 11.56C20.817 11.56 22.147 12.412 22.905 13.123L25.868 10.23C24.048 8.538 21.68 7.5 18.845 7.5C16.8986 7.49961 14.9904 8.04066 13.3339 9.06265C11.6774 10.0846 10.3378 11.5473 9.46497 13.287L12.86 15.923C13.712 13.392 16.068 11.56 18.845 11.56Z" fill="#EA4335"/>
<path fill-rule="evenodd" clip-rule="evenodd" d="M28.925 18.233C28.925 17.37 28.855 16.74 28.703 16.087H18.845V19.983H24.632C24.515 20.952 23.885 22.41 22.485 23.39L25.798 25.957C27.782 24.125 28.925 21.43 28.925 18.233Z" fill="#4285F4"/>
<path fill-rule="evenodd" clip-rule="evenodd" d="M12.872 20.077C12.6425 19.4084 12.5243 18.7068 12.522 18C12.522 17.277 12.65 16.577 12.86 15.923L9.46497 13.287C8.72974 14.7493 8.34622 16.3632 8.34497 18C8.34497 19.692 8.75297 21.29 9.46497 22.713L12.872 20.077Z" fill="#FBBC05"/>
<path fill-rule="evenodd" clip-rule="evenodd" d="M18.8449 28.5C21.6799 28.5 24.0599 27.567 25.7979 25.957L22.4849 23.39C21.5979 24.008 20.4079 24.44 18.8449 24.44C16.0679 24.44 13.7119 22.608 12.8719 20.077L9.47693 22.713C11.2029 26.143 14.7379 28.5 18.8449 28.5Z" fill="#34A853"/>
</g>
</g>
</g>
<defs>
<clipPath id="clip0_1_12608">
<rect width="36" height="36" fill="white" transform="translate(0.844971)"/>
</clipPath>
<clipPath id="clip1_1_12608">
<rect width="36" height="36" fill="white" transform="translate(0.844971)"/>
</clipPath>
<clipPath id="clip2_1_12608">
<rect width="36" height="36" fill="white" transform="translate(0.844971)"/>
</clipPath>
</defs>
</svg>
