<svg width="37" height="36" viewBox="0 0 37 36" fill="none" xmlns="http://www.w3.org/2000/svg">
<g clip-path="url(#clip0_1_12631)">
<g clip-path="url(#clip1_1_12631)">
<g clip-path="url(#clip2_1_12631)">
<path fill-rule="evenodd" clip-rule="evenodd" d="M18.5551 36C28.4551 36 36.5551 27.9 36.5551 18C36.5551 8.1 28.4551 0 18.5551 0C8.65505 0 0.555054 8.1 0.555054 18C0.555054 27.9 8.65505 36 18.5551 36Z" fill="#FAFAFA"/>
<path fill-rule="evenodd" clip-rule="evenodd" d="M10.155 15.5H14.055C14.855 15.5 15.555 14.9 15.555 14.2V10.8C15.555 10.1 14.855 9.5 14.055 9.5H10.155C9.35503 9.5 8.65503 10.1 8.65503 10.8V14.2C8.65503 14.9 9.35503 15.5 10.155 15.5ZM27.055 9.5H23.255C22.355 9.5 21.755 10.1 21.755 10.8V14.2C21.755 14.9 22.355 15.5 23.255 15.5H27.055C27.955 15.5 28.555 14.9 28.555 14.2V10.8C28.555 10.1 27.955 9.5 27.055 9.5ZM19.655 11.6H17.455V9.7H19.655V11.6ZM26.755 11.1V13.9H23.555V11.1H26.755ZM17.455 13.4H19.655V17.4H21.755V19.3H19.655V17.4H17.455V13.4ZM21.755 23.1V25H19.655V26.9H21.755V25H23.955V26.9H28.155V25H23.955V23.1H28.155V21.2H23.955V19.3H26.055V17.4H23.955V19.3H21.755V21.2H19.655V19.3H17.455V25H19.655V23.1H21.755ZM23.955 23.1V21.2H21.755V23.1H23.955ZM11.055 19.3H8.95503V17.4H11.055V19.3ZM17.455 19.3H13.255V17.4H17.455V19.3ZM14.055 21H10.155C9.35503 21 8.65503 21.6 8.65503 22.3V25.7C8.65503 26.4 9.35503 27 10.155 27H14.055C14.855 27 15.555 26.4 15.555 25.7V22.3C15.555 21.6 14.855 21 14.055 21ZM13.655 22.6V25.4H10.455V22.6H13.655Z" fill="black"/>
</g>
</g>
</g>
<defs>
<clipPath id="clip0_1_12631">
<rect width="36" height="36" fill="white" transform="translate(0.555054)"/>
</clipPath>
<clipPath id="clip1_1_12631">
<rect width="36" height="36" fill="white" transform="translate(0.555054)"/>
</clipPath>
<clipPath id="clip2_1_12631">
<rect width="36" height="36" fill="white" transform="translate(0.555054)"/>
</clipPath>
</defs>
</svg>
