<svg width="17" height="17" viewBox="0 0 17 17" fill="none" xmlns="http://www.w3.org/2000/svg">
<rect x="0.209961" y="0.982422" width="16" height="16" rx="8" fill="#C7C8CA"/>
<g opacity="0.4">
<mask id="path-2-inside-1_3_44534" fill="white">
<path d="M0.209961 8.98242C0.209961 4.56414 3.79168 0.982422 8.20996 0.982422C12.6282 0.982422 16.21 4.56414 16.21 8.98242C16.21 13.4007 12.6282 16.9824 8.20996 16.9824C3.79168 16.9824 0.209961 13.4007 0.209961 8.98242Z"/>
</mask>
<path d="M8.20996 15.9824C4.34397 15.9824 1.20996 12.8484 1.20996 8.98242H-0.790039C-0.790039 13.953 3.2394 17.9824 8.20996 17.9824V15.9824ZM15.21 8.98242C15.21 12.8484 12.076 15.9824 8.20996 15.9824V17.9824C13.1805 17.9824 17.21 13.953 17.21 8.98242H15.21ZM8.20996 1.98242C12.076 1.98242 15.21 5.11643 15.21 8.98242H17.21C17.21 4.01186 13.1805 -0.0175781 8.20996 -0.0175781V1.98242ZM8.20996 -0.0175781C3.2394 -0.0175781 -0.790039 4.01186 -0.790039 8.98242H1.20996C1.20996 5.11643 4.34397 1.98242 8.20996 1.98242V-0.0175781Z" fill="black" mask="url(#path-2-inside-1_3_44534)"/>
</g>
</svg>
