<svg width="17" height="17" viewBox="0 0 17 17" fill="none" xmlns="http://www.w3.org/2000/svg">
<rect x="0.600098" y="0.512695" width="16" height="16" rx="8" fill="#4B4F54"/>
<g opacity="0.4">
<mask id="path-2-inside-1_3_46000" fill="white">
<path d="M0.600098 8.5127C0.600098 4.09442 4.18182 0.512695 8.6001 0.512695C13.0184 0.512695 16.6001 4.09442 16.6001 8.5127C16.6001 12.931 13.0184 16.5127 8.6001 16.5127C4.18182 16.5127 0.600098 12.931 0.600098 8.5127Z"/>
</mask>
<path d="M8.6001 15.5127C4.7341 15.5127 1.6001 12.3787 1.6001 8.5127H-0.399902C-0.399902 13.4833 3.62953 17.5127 8.6001 17.5127V15.5127ZM15.6001 8.5127C15.6001 12.3787 12.4661 15.5127 8.6001 15.5127V17.5127C13.5707 17.5127 17.6001 13.4833 17.6001 8.5127H15.6001ZM8.6001 1.5127C12.4661 1.5127 15.6001 4.6467 15.6001 8.5127H17.6001C17.6001 3.54213 13.5707 -0.487305 8.6001 -0.487305V1.5127ZM8.6001 -0.487305C3.62953 -0.487305 -0.399902 3.54213 -0.399902 8.5127H1.6001C1.6001 4.6467 4.7341 1.5127 8.6001 1.5127V-0.487305Z" fill="black" mask="url(#path-2-inside-1_3_46000)"/>
</g>
</svg>
