<svg width="17" height="17" viewBox="0 0 17 17" fill="none" xmlns="http://www.w3.org/2000/svg">
<rect x="0.600098" y="0.982422" width="16" height="16" rx="8" fill="#865101"/>
<g opacity="0.4">
<mask id="path-2-inside-1_1_40485" fill="white">
<path d="M0.600098 8.98242C0.600098 4.56414 4.18182 0.982422 8.6001 0.982422C13.0184 0.982422 16.6001 4.56414 16.6001 8.98242C16.6001 13.4007 13.0184 16.9824 8.6001 16.9824C4.18182 16.9824 0.600098 13.4007 0.600098 8.98242Z"/>
</mask>
<path d="M8.6001 15.9824C4.7341 15.9824 1.6001 12.8484 1.6001 8.98242H-0.399902C-0.399902 13.953 3.62953 17.9824 8.6001 17.9824V15.9824ZM15.6001 8.98242C15.6001 12.8484 12.4661 15.9824 8.6001 15.9824V17.9824C13.5707 17.9824 17.6001 13.953 17.6001 8.98242H15.6001ZM8.6001 1.98242C12.4661 1.98242 15.6001 5.11643 15.6001 8.98242H17.6001C17.6001 4.01186 13.5707 -0.0175781 8.6001 -0.0175781V1.98242ZM8.6001 -0.0175781C3.62953 -0.0175781 -0.399902 4.01186 -0.399902 8.98242H1.6001C1.6001 5.11643 4.7341 1.98242 8.6001 1.98242V-0.0175781Z" fill="black" mask="url(#path-2-inside-1_1_40485)"/>
</g>
</svg>
