<svg width="120" height="20" viewBox="0 0 120 20" fill="none" xmlns="http://www.w3.org/2000/svg">
<mask id="path-1-inside-1_2_8" fill="white">
<path d="M0 14.6631V13.3101H4.609V15.0281C4.60171 15.251 4.64233 15.4728 4.72813 15.6786C4.81393 15.8844 4.9429 16.0694 5.10633 16.2211C5.26976 16.3727 5.46384 16.4876 5.67546 16.5578C5.88708 16.628 6.11131 16.652 6.333 16.6281C6.71103 16.6755 7.09298 16.5781 7.40218 16.3555C7.71138 16.1329 7.92494 15.8016 8 15.4281C8.12345 14.9945 8.11299 14.5337 7.97 14.1061C7.076 11.8041 0.981 10.7591 0.208 7.16113C0.0501521 6.36979 0.0403194 5.55605 0.179 4.76113C0.654 1.87313 3.122 0.828125 6.184 0.828125C8.622 0.828125 11.984 1.41313 11.984 5.28613V6.54712H7.7V5.44012C7.71625 5.22543 7.68584 5.00976 7.61086 4.80792C7.53588 4.60609 7.4181 4.42287 7.26561 4.27086C7.11313 4.11885 6.92955 4.00164 6.72748 3.92729C6.52541 3.85294 6.30965 3.8232 6.095 3.84013C5.72936 3.80374 5.36351 3.90733 5.07123 4.13002C4.77895 4.35271 4.58197 4.67794 4.52 5.04012C4.47196 5.34661 4.48214 5.65941 4.55 5.96212C5.05 8.02112 11.567 9.12912 12.28 12.8491C12.4585 13.8138 12.4684 14.8021 12.309 15.7701C11.892 18.7211 9.336 19.8281 6.244 19.8281C3 19.8281 0 18.6281 0 14.6631ZM55.837 14.6011V13.2491H60.386V14.9401C60.3751 15.1614 60.4122 15.3824 60.4948 15.5879C60.5775 15.7935 60.7037 15.9786 60.8648 16.1307C61.0259 16.2828 61.2181 16.3981 61.428 16.4688C61.638 16.5395 61.8607 16.5638 62.081 16.5401C62.4549 16.5926 62.8347 16.5012 63.1438 16.2844C63.4528 16.0676 63.6681 15.7415 63.746 15.3721C63.8693 14.9487 63.8591 14.4976 63.717 14.0801C62.854 11.8061 56.817 10.7611 56.046 7.16313C55.8882 6.38293 55.878 5.58007 56.016 4.79612C56.492 1.93712 58.96 0.896125 61.962 0.896125C64.371 0.896125 67.701 1.51112 67.701 5.32312V6.55312H63.449V5.47113C63.4659 5.25885 63.437 5.04543 63.3642 4.84532C63.2914 4.64521 63.1764 4.4631 63.027 4.31135C62.8776 4.15959 62.6973 4.04174 62.4984 3.96579C62.2995 3.88983 62.0865 3.85755 61.874 3.87112C61.5154 3.82889 61.1544 3.92682 60.8663 4.14447C60.5782 4.36212 60.3854 4.68265 60.328 5.03912C60.2795 5.34554 60.2894 5.65836 60.357 5.96112C60.832 8.02213 67.284 9.09812 68 12.7871C68.1783 13.7414 68.1881 14.7195 68.029 15.6771C67.613 18.6291 65.086 19.7051 62.024 19.7051C58.811 19.7051 55.837 18.5061 55.837 14.6011ZM72.13 15.2481C72.0882 14.8596 72.0781 14.4683 72.1 14.0781V1.35113H76.441V14.4781C76.4354 14.7042 76.4451 14.9304 76.47 15.1551C76.5582 15.5225 76.7675 15.8494 77.0642 16.0833C77.3609 16.3172 77.7277 16.4444 78.1055 16.4444C78.4833 16.4444 78.8501 16.3172 79.1468 16.0833C79.4435 15.8494 79.6528 15.5225 79.741 15.1551C79.7668 14.9304 79.7768 14.7042 79.771 14.4781V1.35113H84.112V14.0781C84.112 14.4171 84.082 15.0621 84.082 15.2471C83.782 18.5661 81.257 19.6471 78.106 19.6471C74.955 19.6471 72.428 18.5671 72.13 15.2471V15.2481ZM107.869 15.0631C107.825 14.6754 107.806 14.2853 107.81 13.8951V6.42812C107.81 6.12012 107.839 5.56713 107.869 5.25913C108.255 1.94013 110.842 0.894125 113.905 0.894125C116.938 0.894125 119.613 1.93913 119.911 5.25913C119.947 5.64771 119.956 6.03825 119.94 6.42812V7.01213H115.6V6.02812C115.601 5.80115 115.581 5.57457 115.541 5.35112C115.436 4.9787 115.212 4.65082 114.903 4.41732C114.594 4.18383 114.218 4.05748 113.831 4.05748C113.444 4.05748 113.068 4.18383 112.759 4.41732C112.45 4.65082 112.226 4.9787 112.121 5.35112C112.071 5.62444 112.051 5.90246 112.062 6.18013V14.2971C112.057 14.5232 112.067 14.7494 112.092 14.9741C112.19 15.3706 112.427 15.7189 112.759 15.9557C113.092 16.1926 113.498 16.3024 113.905 16.2651C114.305 16.3034 114.705 16.1929 115.029 15.9547C115.352 15.7165 115.577 15.3674 115.659 14.9741C115.699 14.7508 115.709 14.5231 115.689 14.2971V11.7111H113.935V9.12813H120V13.8931C120.004 14.2833 119.984 14.6734 119.94 15.0611C119.64 18.2891 116.94 19.4271 113.904 19.4271C110.868 19.4271 108.166 18.2901 107.869 15.0631ZM47.369 19.0901L47.245 2.67313L44.272 19.0901H39.931L36.987 2.67313L36.869 19.0901H32.587L32.943 1.38213H39.931L42.1 15.2161L44.272 1.38213H51.259L51.645 19.0901H47.369ZM24.534 19.0901L22.211 2.67313L19.831 19.0901H15.194L18.344 1.38213H25.986L29.138 19.0901H24.534ZM97.199 18.9061L92.884 4.18012L93.122 18.9061H88.9V1.38213H95.263L99.307 15.6471L99.068 1.38213H103.319V18.9061H97.199Z"/>
</mask>
<path d="M0 14.6631V13.3101H4.609V15.0281C4.60171 15.251 4.64233 15.4728 4.72813 15.6786C4.81393 15.8844 4.9429 16.0694 5.10633 16.2211C5.26976 16.3727 5.46384 16.4876 5.67546 16.5578C5.88708 16.628 6.11131 16.652 6.333 16.6281C6.71103 16.6755 7.09298 16.5781 7.40218 16.3555C7.71138 16.1329 7.92494 15.8016 8 15.4281C8.12345 14.9945 8.11299 14.5337 7.97 14.1061C7.076 11.8041 0.981 10.7591 0.208 7.16113C0.0501521 6.36979 0.0403194 5.55605 0.179 4.76113C0.654 1.87313 3.122 0.828125 6.184 0.828125C8.622 0.828125 11.984 1.41313 11.984 5.28613V6.54712H7.7V5.44012C7.71625 5.22543 7.68584 5.00976 7.61086 4.80792C7.53588 4.60609 7.4181 4.42287 7.26561 4.27086C7.11313 4.11885 6.92955 4.00164 6.72748 3.92729C6.52541 3.85294 6.30965 3.8232 6.095 3.84013C5.72936 3.80374 5.36351 3.90733 5.07123 4.13002C4.77895 4.35271 4.58197 4.67794 4.52 5.04012C4.47196 5.34661 4.48214 5.65941 4.55 5.96212C5.05 8.02112 11.567 9.12912 12.28 12.8491C12.4585 13.8138 12.4684 14.8021 12.309 15.7701C11.892 18.7211 9.336 19.8281 6.244 19.8281C3 19.8281 0 18.6281 0 14.6631ZM55.837 14.6011V13.2491H60.386V14.9401C60.3751 15.1614 60.4122 15.3824 60.4948 15.5879C60.5775 15.7935 60.7037 15.9786 60.8648 16.1307C61.0259 16.2828 61.2181 16.3981 61.428 16.4688C61.638 16.5395 61.8607 16.5638 62.081 16.5401C62.4549 16.5926 62.8347 16.5012 63.1438 16.2844C63.4528 16.0676 63.6681 15.7415 63.746 15.3721C63.8693 14.9487 63.8591 14.4976 63.717 14.0801C62.854 11.8061 56.817 10.7611 56.046 7.16313C55.8882 6.38293 55.878 5.58007 56.016 4.79612C56.492 1.93712 58.96 0.896125 61.962 0.896125C64.371 0.896125 67.701 1.51112 67.701 5.32312V6.55312H63.449V5.47113C63.4659 5.25885 63.437 5.04543 63.3642 4.84532C63.2914 4.64521 63.1764 4.4631 63.027 4.31135C62.8776 4.15959 62.6973 4.04174 62.4984 3.96579C62.2995 3.88983 62.0865 3.85755 61.874 3.87112C61.5154 3.82889 61.1544 3.92682 60.8663 4.14447C60.5782 4.36212 60.3854 4.68265 60.328 5.03912C60.2795 5.34554 60.2894 5.65836 60.357 5.96112C60.832 8.02213 67.284 9.09812 68 12.7871C68.1783 13.7414 68.1881 14.7195 68.029 15.6771C67.613 18.6291 65.086 19.7051 62.024 19.7051C58.811 19.7051 55.837 18.5061 55.837 14.6011ZM72.13 15.2481C72.0882 14.8596 72.0781 14.4683 72.1 14.0781V1.35113H76.441V14.4781C76.4354 14.7042 76.4451 14.9304 76.47 15.1551C76.5582 15.5225 76.7675 15.8494 77.0642 16.0833C77.3609 16.3172 77.7277 16.4444 78.1055 16.4444C78.4833 16.4444 78.8501 16.3172 79.1468 16.0833C79.4435 15.8494 79.6528 15.5225 79.741 15.1551C79.7668 14.9304 79.7768 14.7042 79.771 14.4781V1.35113H84.112V14.0781C84.112 14.4171 84.082 15.0621 84.082 15.2471C83.782 18.5661 81.257 19.6471 78.106 19.6471C74.955 19.6471 72.428 18.5671 72.13 15.2471V15.2481ZM107.869 15.0631C107.825 14.6754 107.806 14.2853 107.81 13.8951V6.42812C107.81 6.12012 107.839 5.56713 107.869 5.25913C108.255 1.94013 110.842 0.894125 113.905 0.894125C116.938 0.894125 119.613 1.93913 119.911 5.25913C119.947 5.64771 119.956 6.03825 119.94 6.42812V7.01213H115.6V6.02812C115.601 5.80115 115.581 5.57457 115.541 5.35112C115.436 4.9787 115.212 4.65082 114.903 4.41732C114.594 4.18383 114.218 4.05748 113.831 4.05748C113.444 4.05748 113.068 4.18383 112.759 4.41732C112.45 4.65082 112.226 4.9787 112.121 5.35112C112.071 5.62444 112.051 5.90246 112.062 6.18013V14.2971C112.057 14.5232 112.067 14.7494 112.092 14.9741C112.19 15.3706 112.427 15.7189 112.759 15.9557C113.092 16.1926 113.498 16.3024 113.905 16.2651C114.305 16.3034 114.705 16.1929 115.029 15.9547C115.352 15.7165 115.577 15.3674 115.659 14.9741C115.699 14.7508 115.709 14.5231 115.689 14.2971V11.7111H113.935V9.12813H120V13.8931C120.004 14.2833 119.984 14.6734 119.94 15.0611C119.64 18.2891 116.94 19.4271 113.904 19.4271C110.868 19.4271 108.166 18.2901 107.869 15.0631ZM47.369 19.0901L47.245 2.67313L44.272 19.0901H39.931L36.987 2.67313L36.869 19.0901H32.587L32.943 1.38213H39.931L42.1 15.2161L44.272 1.38213H51.259L51.645 19.0901H47.369ZM24.534 19.0901L22.211 2.67313L19.831 19.0901H15.194L18.344 1.38213H25.986L29.138 19.0901H24.534ZM97.199 18.9061L92.884 4.18012L93.122 18.9061H88.9V1.38213H95.263L99.307 15.6471L99.068 1.38213H103.319V18.9061H97.199Z" fill="black" stroke="black" stroke-width="2" mask="url(#path-1-inside-1_2_8)"/>
</svg>
