<svg width="18" height="19" viewBox="0 0 18 19" fill="none" xmlns="http://www.w3.org/2000/svg">
<path d="M3.90749 14.4597H2.00049" stroke="black" stroke-width="1.5" stroke-linecap="round" stroke-linejoin="round"/>
<path d="M16.3033 14.4597H8.67529" stroke="black" stroke-width="1.5" stroke-linecap="round" stroke-linejoin="round"/>
<path d="M9.62849 9.69269H2.00049" stroke="black" stroke-width="1.5" stroke-linecap="round" stroke-linejoin="round"/>
<path d="M16.3035 9.69269H14.3965" stroke="black" stroke-width="1.5" stroke-linecap="round" stroke-linejoin="round"/>
<path d="M3.90749 4.92468H2.00049" stroke="black" stroke-width="1.5" stroke-linecap="round" stroke-linejoin="round"/>
<path d="M16.3033 4.92468H8.67529" stroke="black" stroke-width="1.5" stroke-linecap="round" stroke-linejoin="round"/>
<path d="M13.0494 9.69265C13.0494 9.88944 12.9911 10.0818 12.8817 10.2454C12.7724 10.4091 12.617 10.5366 12.4352 10.6119C12.2534 10.6872 12.0533 10.7069 11.8603 10.6685C11.6673 10.6301 11.49 10.5354 11.3509 10.3962C11.2117 10.2571 11.1169 10.0798 11.0785 9.88677C11.0402 9.69376 11.0598 9.49369 11.1352 9.31188C11.2105 9.13007 11.338 8.97468 11.5016 8.86535C11.6652 8.75602 11.8576 8.69765 12.0544 8.69765C12.3179 8.69897 12.5702 8.80422 12.7565 8.99053C12.9428 9.17685 13.0481 9.42916 13.0494 9.69265ZM14.4804 9.69265C14.4804 9.21283 14.3381 8.74379 14.0716 8.34484C13.805 7.94589 13.4261 7.63493 12.9828 7.45132C12.5395 7.2677 12.0517 7.21968 11.5811 7.31328C11.1105 7.40689 10.6783 7.63794 10.339 7.97722C9.9997 8.31651 9.76865 8.74875 9.67504 9.21935C9.58143 9.68995 9.62945 10.1778 9.81307 10.6211C9.99669 11.0643 10.3076 11.4432 10.7066 11.7098C11.1055 11.9764 11.5746 12.1186 12.0544 12.1186C12.6978 12.1186 13.3149 11.8631 13.7699 11.4081C14.2248 10.9531 14.4804 10.3361 14.4804 9.69265Z" fill="black"/>
<path d="M7.3287 4.92565C7.32772 5.12222 7.26853 5.3141 7.1586 5.47707C7.04867 5.64004 6.89293 5.76678 6.71103 5.84133C6.52913 5.91587 6.32922 5.93488 6.13653 5.89592C5.94385 5.85697 5.76704 5.7618 5.62839 5.62245C5.48973 5.4831 5.39547 5.30581 5.35748 5.11293C5.31949 4.92006 5.33949 4.72027 5.41495 4.53874C5.4904 4.35722 5.61792 4.20212 5.78143 4.093C5.94495 3.98389 6.13713 3.92565 6.33371 3.92565C6.59806 3.92697 6.85114 4.0329 7.0376 4.22029C7.22405 4.40769 7.32871 4.66129 7.3287 4.92565ZM8.7597 4.92565C8.7599 4.44579 8.6178 3.97665 8.35135 3.57756C8.0849 3.17848 7.70606 2.86738 7.26279 2.68361C6.81951 2.49984 6.33169 2.45166 5.86102 2.54515C5.39036 2.63865 4.958 2.86961 4.61862 3.20885C4.27924 3.54809 4.04809 3.98038 3.95441 4.45101C3.86072 4.92163 3.9087 5.40945 4.09228 5.8528C4.27587 6.29615 4.5868 6.67511 4.98578 6.94173C5.38475 7.20834 5.85385 7.35066 6.33371 7.35066C6.97695 7.35066 7.59386 7.09521 8.0488 6.64046C8.50373 6.18571 8.75944 5.56889 8.7597 4.92565Z" fill="black"/>
<path d="M7.32872 14.4597C7.32872 14.6565 7.27036 14.8488 7.16102 15.0125C7.05169 15.1761 6.8963 15.3036 6.71449 15.379C6.53268 15.4543 6.33261 15.474 6.1396 15.4356C5.94659 15.3972 5.76929 15.3024 5.63014 15.1633C5.49099 15.0241 5.39622 14.8468 5.35783 14.6538C5.31944 14.4608 5.33916 14.2607 5.41447 14.0789C5.48978 13.8971 5.6173 13.7417 5.78093 13.6324C5.94455 13.523 6.13693 13.4647 6.33372 13.4647C6.59721 13.466 6.84953 13.5712 7.03584 13.7576C7.22216 13.9439 7.3274 14.1962 7.32872 14.4597ZM8.75972 14.4597C8.75972 13.9799 8.61745 13.5108 8.35087 13.1119C8.0843 12.7129 7.70542 12.402 7.26213 12.2183C6.81884 12.0347 6.33102 11.9867 5.86043 12.0803C5.38983 12.1739 4.95755 12.405 4.61827 12.7443C4.27899 13.0835 4.04794 13.5158 3.95433 13.9864C3.86072 14.457 3.90877 14.9448 4.09239 15.3881C4.27601 15.8314 4.58696 16.2103 4.98591 16.4768C5.38487 16.7434 5.85391 16.8857 6.33372 16.8857C6.65235 16.8858 6.96789 16.8232 7.26228 16.7013C7.55668 16.5794 7.82415 16.4007 8.04945 16.1754C8.27475 15.9501 8.45346 15.6826 8.57533 15.3882C8.6972 15.0938 8.75985 14.7783 8.75972 14.4597Z" fill="black"/>
</svg>
