<svg width="27" height="25" viewBox="0 0 27 25" fill="none" xmlns="http://www.w3.org/2000/svg">
<path d="M20.2646 18.564C20.8677 18.564 21.4572 18.7428 21.9586 19.0778C22.46 19.4128 22.8508 19.889 23.0815 20.4462C23.3123 21.0033 23.3727 21.6164 23.255 22.2078C23.1374 22.7992 22.847 23.3425 22.4206 23.7689C21.9942 24.1953 21.4509 24.4857 20.8595 24.6034C20.268 24.721 19.655 24.6606 19.0978 24.4299C18.5407 24.1991 18.0645 23.8083 17.7295 23.3069C17.3944 22.8055 17.2156 22.216 17.2156 21.613C17.2227 20.8065 17.5462 20.0351 18.1164 19.4648C18.6867 18.8945 19.4582 18.571 20.2646 18.564ZM10.5646 18.564C11.1677 18.564 11.7572 18.7428 12.2586 19.0778C12.76 19.4128 13.1508 19.889 13.3815 20.4462C13.6123 21.0033 13.6727 21.6164 13.555 22.2078C13.4374 22.7992 13.147 23.3425 12.7206 23.7689C12.2942 24.1953 11.7509 24.4857 11.1595 24.6034C10.568 24.721 9.95495 24.6606 9.39782 24.4299C8.84069 24.1991 8.3645 23.8083 8.02947 23.3069C7.69445 22.8055 7.51563 22.216 7.51563 21.613C7.52267 20.8067 7.84603 20.0354 8.41609 19.4651C8.98615 18.8949 9.75733 18.5713 10.5636 18.564H10.5646ZM20.2646 20.504C20.0453 20.504 19.8309 20.569 19.6485 20.6909C19.4661 20.8127 19.324 20.9859 19.24 21.1886C19.1561 21.3912 19.1341 21.6142 19.1769 21.8293C19.2197 22.0444 19.3253 22.2421 19.4804 22.3971C19.6355 22.5522 19.8331 22.6579 20.0483 22.7007C20.2634 22.7434 20.4864 22.7215 20.689 22.6375C20.8917 22.5536 21.0649 22.4115 21.1867 22.2291C21.3086 22.0467 21.3736 21.8323 21.3736 21.613C21.3748 21.467 21.347 21.3222 21.2917 21.1872C21.2363 21.0521 21.1547 20.9293 21.0515 20.8261C20.9483 20.7229 20.8255 20.6412 20.6904 20.5859C20.5553 20.5306 20.4106 20.5028 20.2646 20.504ZM10.5646 20.504C10.3453 20.504 10.1309 20.569 9.9485 20.6909C9.76612 20.8127 9.62398 20.9859 9.54004 21.1886C9.4561 21.3912 9.43414 21.6142 9.47693 21.8293C9.51972 22.0444 9.62535 22.2421 9.78044 22.3971C9.93554 22.5522 10.1331 22.6579 10.3483 22.7007C10.5634 22.7434 10.7864 22.7215 10.989 22.6375C11.1917 22.5536 11.3649 22.4115 11.4867 22.2291C11.6086 22.0467 11.6736 21.8323 11.6736 21.613C11.6756 21.4667 11.6483 21.3215 11.5932 21.186C11.5381 21.0504 11.4564 20.9273 11.353 20.8239C11.2495 20.7205 11.1263 20.6389 10.9907 20.584C10.8551 20.529 10.7099 20.5018 10.5636 20.504H10.5646ZM3.93862 0.158966C4.25097 0.16481 4.554 0.266311 4.80685 0.449777C5.05969 0.633242 5.25018 0.889845 5.35262 1.18497V1.23997L6.18463 4.33997H25.0596C25.2579 4.33987 25.4537 4.38414 25.6326 4.46953C25.8115 4.55491 25.9691 4.67925 26.0937 4.83343C26.2184 4.98761 26.307 5.16772 26.353 5.36057C26.399 5.55342 26.4012 5.75412 26.3596 5.94797V6.00297L23.7016 16.069C23.6177 16.369 23.4412 16.635 23.1974 16.8291C22.9536 17.0231 22.6549 17.1354 22.3436 17.15H8.42862C8.11493 17.1496 7.80937 17.0502 7.55548 16.8659C7.30159 16.6817 7.11231 16.4221 7.01463 16.124L6.99062 16.069L3.35663 2.37597H0.390625V0.158966H3.93862ZM23.8956 6.55897H6.76562L8.98263 14.93H21.7056L23.8956 6.55897Z" fill="black"/>
</svg>
