<svg width="25" height="25" viewBox="0 0 25 25" fill="none" xmlns="http://www.w3.org/2000/svg">
<g id="Frame" clip-path="url(#clip0_2_22)">
<path id="Vector" d="M1.15625 0.828125H24.1562V23.8281H1.15625V0.828125Z" />
<path id="Vector_2" d="M5.30537 5.48612L5.40274 5.86015H5.78925H23.3053V5.86022L23.3132 5.86009C23.3594 5.85936 23.4051 5.86907 23.447 5.88853C23.4889 5.90798 23.5258 5.93666 23.555 5.97243C23.5842 6.00819 23.605 6.0501 23.6157 6.09501C23.6264 6.13996 23.6269 6.18672 23.617 6.23177L23.6091 6.26715L21.2632 15.3279C21.2375 15.4199 21.184 15.5017 21.11 15.5622C21.0389 15.6204 20.9523 15.6562 20.8611 15.6652H20.8323H8.05568C7.9604 15.6627 7.8681 15.631 7.79126 15.5745C7.7162 15.5193 7.65945 15.443 7.62817 15.3554L7.62012 15.3263L4.32104 2.70074L4.22342 2.32715H3.83728H1.43726V2.07731L4.07116 2.07815C4.16642 2.0805 4.25866 2.11205 4.33547 2.16863C4.41084 2.22415 4.46764 2.30108 4.49853 2.38926L4.50669 2.41814L5.30537 5.48612ZM23.2223 6.73554L23.3843 6.11015H22.7383H6.11829H5.47105L5.63449 6.73641L7.80246 15.0434L7.9 15.4172H8.28625H20.5863H20.9733L21.0703 15.0425L23.2223 6.73554ZM18.8613 18.6602C19.2568 18.6602 19.6435 18.7775 19.9724 18.9972C20.3013 19.217 20.5576 19.5293 20.709 19.8948C20.8604 20.2602 20.9 20.6624 20.8228 21.0503C20.7457 21.4383 20.5552 21.7947 20.2755 22.0744C19.9958 22.3541 19.6394 22.5446 19.2515 22.6217C18.8635 22.6989 18.4613 22.6593 18.0959 22.5079C17.7304 22.3565 17.4181 22.1002 17.1983 21.7713C16.9786 21.4424 16.8613 21.0557 16.8613 20.6602C16.8613 20.1297 17.072 19.621 17.4471 19.2459C17.8221 18.8709 18.3308 18.6602 18.8613 18.6602ZM10.1252 18.6602C10.5208 18.6602 10.9075 18.7775 11.2364 18.9972C11.5653 19.217 11.8217 19.5293 11.9731 19.8948C12.1244 20.2602 12.164 20.6623 12.0868 21.0503C12.0096 21.4383 11.8192 21.7947 11.5395 22.0744C11.2598 22.3541 10.9034 22.5446 10.5154 22.6217C10.1275 22.6989 9.72538 22.6593 9.35992 22.5079C8.99444 22.3565 8.68205 22.1002 8.4623 21.7713C8.24254 21.4424 8.12524 21.0557 8.12524 20.6602C8.12524 20.1297 8.33596 19.621 8.71104 19.2459C9.08611 18.8709 9.59482 18.6602 10.1252 18.6602ZM18.8613 18.9102C18.5151 18.9102 18.1768 19.0128 17.889 19.2051C17.6012 19.3974 17.3769 19.6707 17.2445 19.9905C17.112 20.3103 17.0774 20.6621 17.1449 21.0016C17.2124 21.341 17.3791 21.6529 17.6239 21.8976C17.8686 22.1423 18.1804 22.309 18.5199 22.3765C18.8594 22.4441 19.2112 22.4094 19.5309 22.2769C19.8507 22.1445 20.1241 21.9202 20.3164 21.6324C20.5087 21.3446 20.6113 21.0062 20.6113 20.6602C20.6113 20.1961 20.4269 19.7509 20.0987 19.4227C19.7705 19.0945 19.3254 18.9102 18.8613 18.9102ZM10.1252 18.9102C9.77913 18.9102 9.44079 19.0128 9.153 19.2051C8.86521 19.3974 8.64091 19.6707 8.50846 19.9905C8.37599 20.3103 8.34138 20.6621 8.4089 21.0016C8.47643 21.341 8.64311 21.6529 8.88784 21.8976C9.13258 22.1423 9.44439 22.309 9.78386 22.3765C10.1233 22.4441 10.4752 22.4094 10.795 22.2769C11.1148 22.1445 11.3881 21.9202 11.5803 21.6324C11.7727 21.3446 11.8752 21.0062 11.8752 20.6602C11.8752 20.1961 11.6909 19.7509 11.3627 19.4227C11.0345 19.0945 10.5894 18.9102 10.1252 18.9102Z" fill="black" stroke="black"/>
</g>
<defs>
<clipPath id="clip0_2_22">
<rect width="24" height="24" fill="white" transform="translate(0.65625 0.328125)"/>
</clipPath>
</defs>
</svg>
