<svg width="36" height="36" viewBox="0 0 36 36" fill="none" xmlns="http://www.w3.org/2000/svg">
<g clip-path="url(#clip0_1_17411)">
<path d="M5.3999 14.1005H7.2999C7.2999 14.1005 7.2999 19.2005 7.2999 20.4005C7.2999 21.3005 9.1999 21.3005 9.1999 20.4005V14.2005C9.1999 14.2005 9.7999 14.2005 10.9999 14.2005C12.1999 14.2005 12.1999 12.4005 10.9999 12.4005C9.6999 12.4005 5.3999 12.4005 5.3999 12.4005C4.3999 12.3005 4.3999 14.1005 5.3999 14.1005Z" fill="white"/>
<mask id="mask0_1_17411" style="mask-type:luminance" maskUnits="userSpaceOnUse" x="4" y="12" width="8" height="10">
<path d="M5.3999 14.1005H7.2999C7.2999 14.1005 7.2999 19.2005 7.2999 20.4005C7.2999 21.3005 9.1999 21.3005 9.1999 20.4005V14.2005C9.1999 14.2005 9.7999 14.2005 10.9999 14.2005C12.1999 14.2005 12.1999 12.4005 10.9999 12.4005C9.6999 12.4005 5.3999 12.4005 5.3999 12.4005C4.3999 12.3005 4.3999 14.1005 5.3999 14.1005Z" fill="white"/>
</mask>
<g mask="url(#mask0_1_17411)">
<path d="M12.2999 12.3008H4.3999V21.2008H12.2999V12.3008Z" fill="white"/>
</g>
<path d="M14.2998 14.4002L15.2998 17.6002H13.1998L14.2998 14.4002ZM13.1998 12.9002C12.6998 13.9002 11.0998 18.6002 10.5998 19.9002C10.1998 20.8002 11.8998 21.6002 12.2998 20.6002L12.6998 19.3002H15.9998C15.9998 19.3002 15.8998 19.4002 16.2998 20.5002C16.6998 21.5002 18.3998 20.8002 18.0998 19.8002C17.5998 18.4002 15.7998 13.5002 15.4998 12.8002C15.2998 12.5002 14.7998 12.2002 14.2998 12.2002C13.7998 12.3002 13.2998 12.5002 13.1998 12.9002Z" fill="white"/>
<mask id="mask1_1_17411" style="mask-type:luminance" maskUnits="userSpaceOnUse" x="10" y="12" width="9" height="10">
<path d="M14.2998 14.4002L15.2998 17.6002H13.1998L14.2998 14.4002ZM13.1998 12.9002C12.6998 13.9002 11.0998 18.6002 10.5998 19.9002C10.1998 20.8002 11.8998 21.6002 12.2998 20.6002L12.6998 19.3002H15.9998C15.9998 19.3002 15.8998 19.4002 16.2998 20.5002C16.6998 21.5002 18.3998 20.8002 18.0998 19.8002C17.5998 18.4002 15.7998 13.5002 15.4998 12.8002C15.2998 12.5002 14.7998 12.2002 14.2998 12.2002C13.7998 12.3002 13.2998 12.5002 13.1998 12.9002Z" fill="white"/>
</mask>
<g mask="url(#mask1_1_17411)">
<path d="M18.3999 12.2998H10.0999V21.4998H18.3999V12.2998Z" fill="white"/>
</g>
<path d="M18.6998 13.1998C18.6998 14.7998 18.6998 19.9998 18.6998 19.9998C18.6998 19.9998 18.5998 20.9998 19.3998 20.9998C20.2998 20.9998 22.1998 20.9998 23.0998 20.9998C23.9998 20.9998 23.9998 19.0998 23.0998 19.0998C22.1998 19.0998 20.5998 19.0998 20.5998 19.0998C20.5998 19.0998 20.5998 14.2998 20.5998 13.0998C20.5998 12.4998 20.0998 12.2998 19.5998 12.2998C19.1998 12.2998 18.6998 12.5998 18.6998 13.1998Z" fill="white"/>
<mask id="mask2_1_17411" style="mask-type:luminance" maskUnits="userSpaceOnUse" x="18" y="12" width="6" height="9">
<path d="M18.6998 13.1998C18.6998 14.7998 18.6998 19.9998 18.6998 19.9998C18.6998 19.9998 18.5998 20.9998 19.3998 20.9998C20.2998 20.9998 22.1998 20.9998 23.0998 20.9998C23.9998 20.9998 23.9998 19.0998 23.0998 19.0998C22.1998 19.0998 20.5998 19.0998 20.5998 19.0998C20.5998 19.0998 20.5998 14.2998 20.5998 13.0998C20.5998 12.4998 20.0998 12.2998 19.5998 12.2998C19.1998 12.2998 18.6998 12.5998 18.6998 13.1998Z" fill="white"/>
</mask>
<g mask="url(#mask2_1_17411)">
<path d="M24.0999 12.2998H18.5999V20.9998H24.0999V12.2998Z" fill="white"/>
</g>
<path d="M24.2998 12.8998C24.2998 13.5998 24.2998 19.9998 24.2998 20.4998C24.2998 21.1998 26.1998 21.1998 26.1998 20.4998C26.1998 19.5998 26.1998 17.9998 26.1998 17.9998L26.7998 17.5998L29.1998 20.8998C29.6998 21.5998 31.1998 20.3998 30.7998 19.6998L28.1998 16.2998C28.1998 16.2998 29.9998 14.3998 30.6998 13.6998C31.0998 13.2998 29.8998 11.9998 29.3998 12.3998C28.9998 12.7998 26.1998 15.4998 26.1998 15.4998C26.1998 15.4998 26.1998 13.7998 26.1998 12.7998C26.1998 12.3998 25.6998 12.2998 25.2998 12.2998C24.7998 12.3998 24.2998 12.5998 24.2998 12.8998Z" fill="white"/>
<mask id="mask3_1_17411" style="mask-type:luminance" maskUnits="userSpaceOnUse" x="24" y="12" width="7" height="10">
<path d="M24.2998 12.8998C24.2998 13.5998 24.2998 19.9998 24.2998 20.4998C24.2998 21.1998 26.1998 21.1998 26.1998 20.4998C26.1998 19.5998 26.1998 17.9998 26.1998 17.9998L26.7998 17.5998L29.1998 20.8998C29.6998 21.5998 31.1998 20.3998 30.7998 19.6998L28.1998 16.2998C28.1998 16.2998 29.9998 14.3998 30.6998 13.6998C31.0998 13.2998 29.8998 11.9998 29.3998 12.3998C28.9998 12.7998 26.1998 15.4998 26.1998 15.4998C26.1998 15.4998 26.1998 13.7998 26.1998 12.7998C26.1998 12.3998 25.6998 12.2998 25.2998 12.2998C24.7998 12.3998 24.2998 12.5998 24.2998 12.8998Z" fill="white"/>
</mask>
<g mask="url(#mask3_1_17411)">
<path d="M31.2998 12H24.2998V21.5H31.2998V12Z" fill="white"/>
</g>
<path d="M18.2 2.5C8.4 2.5 0.5 8.8 0.5 16.5C0.5 21.5 3.9 25.9 8.9 28.4C8.5 29.8 7.6 33.4 7.4 34.2C7.2 35.2 7.8 35.2 8.1 34.9C8.4 34.7 13 31.6 14.9 30.3C16 30.5 17.1 30.5 18.2 30.5C28 30.5 35.9 24.2 35.9 16.5C35.9 8.7 28 2.5 18.2 2.5Z" fill="black"/>
<path d="M5.89995 13.8993H7.69995C7.69995 13.8993 7.69995 18.8993 7.69995 20.0993C7.69995 20.9993 9.59995 20.9993 9.59995 20.0993V13.9993C9.59995 13.9993 10.2 13.9993 11.4 13.9993C12.5 13.9993 12.5 12.1993 11.4 12.1993C10.1 12.1993 5.89995 12.1993 5.89995 12.1993C4.79995 12.0993 4.79995 13.8993 5.89995 13.8993Z" fill="white"/>
<mask id="mask4_1_17411" style="mask-type:luminance" maskUnits="userSpaceOnUse" x="5" y="12" width="8" height="9">
<path d="M5.89995 13.8993H7.69995C7.69995 13.8993 7.69995 18.8993 7.69995 20.0993C7.69995 20.9993 9.59995 20.9993 9.59995 20.0993V13.9993C9.59995 13.9993 10.2 13.9993 11.4 13.9993C12.5 13.9993 12.5 12.1993 11.4 12.1993C10.1 12.1993 5.89995 12.1993 5.89995 12.1993C4.79995 12.0993 4.79995 13.8993 5.89995 13.8993Z" fill="white"/>
</mask>
<g mask="url(#mask4_1_17411)">
<path d="M12.5 12.0996H4.80005V20.8996H12.5V12.0996Z" fill="white"/>
</g>
<path d="M14.5998 14.1996L15.5998 17.3996H13.4998L14.5998 14.1996ZM13.4998 12.6996C13.0998 13.6996 11.3998 18.3996 10.8998 19.5996C10.4998 20.4996 12.1998 21.1996 12.5998 20.2996L12.9998 18.9996H16.2998C16.2998 18.9996 16.1998 19.0996 16.5998 20.1996C16.9998 21.0996 18.6998 20.4996 18.2998 19.4996C17.7998 18.0996 15.9998 13.2996 15.6998 12.5996C15.5998 12.2996 14.9998 12.0996 14.4998 12.0996C13.9998 12.1996 13.5998 12.2996 13.4998 12.6996Z" fill="white"/>
<mask id="mask5_1_17411" style="mask-type:luminance" maskUnits="userSpaceOnUse" x="10" y="12" width="9" height="9">
<path d="M14.5998 14.1996L15.5998 17.3996H13.4998L14.5998 14.1996ZM13.4998 12.6996C13.0998 13.6996 11.3998 18.3996 10.8998 19.5996C10.4998 20.4996 12.1998 21.1996 12.5998 20.2996L12.9998 18.9996H16.2998C16.2998 18.9996 16.1998 19.0996 16.5998 20.1996C16.9998 21.0996 18.6998 20.4996 18.2998 19.4996C17.7998 18.0996 15.9998 13.2996 15.6998 12.5996C15.5998 12.2996 14.9998 12.0996 14.4998 12.0996C13.9998 12.1996 13.5998 12.2996 13.4998 12.6996Z" fill="white"/>
</mask>
<g mask="url(#mask5_1_17411)">
<path d="M18.6998 12.1992H10.4998V21.2992H18.6998V12.1992Z" fill="white"/>
</g>
<path d="M18.9 12.9992C18.9 14.5992 18.9 19.6992 18.9 19.6992C18.9 19.6992 18.8 20.6992 19.6 20.6992C20.5 20.6992 22.4 20.6992 23.3 20.6992C24.2 20.6992 24.2 18.8992 23.3 18.8992C22.4 18.8992 20.9 18.8992 20.9 18.8992C20.9 18.8992 20.9 14.1992 20.9 12.9992C20.9 12.3992 20.4 12.1992 19.9 12.1992C19.4 12.1992 18.9 12.4992 18.9 12.9992Z" fill="white"/>
<mask id="mask6_1_17411" style="mask-type:luminance" maskUnits="userSpaceOnUse" x="18" y="12" width="6" height="9">
<path d="M18.9 12.9992C18.9 14.5992 18.9 19.6992 18.9 19.6992C18.9 19.6992 18.8 20.6992 19.6 20.6992C20.5 20.6992 22.4 20.6992 23.3 20.6992C24.2 20.6992 24.2 18.8992 23.3 18.8992C22.4 18.8992 20.9 18.8992 20.9 18.8992C20.9 18.8992 20.9 14.1992 20.9 12.9992C20.9 12.3992 20.4 12.1992 19.9 12.1992C19.4 12.1992 18.9 12.4992 18.9 12.9992Z" fill="white"/>
</mask>
<g mask="url(#mask6_1_17411)">
<path d="M24.2001 12.1992H18.8V20.6992H24.2001V12.1992Z" fill="white"/>
</g>
<path d="M24.3999 12.7996C24.3999 13.4996 24.3999 19.7996 24.3999 20.1996C24.3999 20.8996 26.2999 20.8996 26.2999 20.1996C26.2999 19.2996 26.2999 17.6996 26.2999 17.6996L26.7999 17.2996L29.1999 20.5996C29.6999 21.1996 31.1999 20.0996 30.6999 19.3996L28.0999 15.9996C28.0999 15.9996 29.7999 14.0996 30.4999 13.3996C30.8999 12.9996 29.6999 11.7996 29.2999 12.1996C28.8999 12.5996 26.1999 15.2996 26.1999 15.2996C26.1999 15.2996 26.1999 13.5996 26.1999 12.6996C26.1999 12.2996 25.7999 12.1996 25.2999 12.1996C24.8999 12.1996 24.3999 12.3996 24.3999 12.7996Z" fill="white"/>
<mask id="mask7_1_17411" style="mask-type:luminance" maskUnits="userSpaceOnUse" x="24" y="12" width="7" height="9">
<path d="M24.3999 12.7996C24.3999 13.4996 24.3999 19.7996 24.3999 20.1996C24.3999 20.8996 26.2999 20.8996 26.2999 20.1996C26.2999 19.2996 26.2999 17.6996 26.2999 17.6996L26.7999 17.2996L29.1999 20.5996C29.6999 21.1996 31.1999 20.0996 30.6999 19.3996L28.0999 15.9996C28.0999 15.9996 29.7999 14.0996 30.4999 13.3996C30.8999 12.9996 29.6999 11.7996 29.2999 12.1996C28.8999 12.5996 26.1999 15.2996 26.1999 15.2996C26.1999 15.2996 26.1999 13.5996 26.1999 12.6996C26.1999 12.2996 25.7999 12.1996 25.2999 12.1996C24.8999 12.1996 24.3999 12.3996 24.3999 12.7996Z" fill="white"/>
</mask>
<g mask="url(#mask7_1_17411)">
<path d="M31.1999 11.8994H24.3999V21.1994H31.1999V11.8994Z" fill="white"/>
</g>
</g>
<defs>
<clipPath id="clip0_1_17411">
<rect width="36" height="36" fill="white"/>
</clipPath>
</defs>
</svg>
