<svg id="icon-svg-mypage" xmlns="http://www.w3.org/2000/svg" width="24" height="24" viewBox="0 0 24 24" fill="currentColor" data-di-res-id="95e7669b-cf56f447" data-di-rand="1742735024472">
                            <rect width="26" height="26" fill="none"></rect>
                            <path d="M204,256.875a7.661,7.661,0,0,1,7.625,7.389v1.986a.875.875,0,0,1-.875.875h-13.5a.875.875,0,0,1-.875-.875v-1.986A7.661,7.661,0,0,1,204,256.875Zm0,1.25a6.413,6.413,0,0,0-6.375,6.139v1.611h12.75v-1.611a6.412,6.412,0,0,0-6.272-6.138Zm0-13.25A5.125,5.125,0,1,1,198.875,250,5.125,5.125,0,0,1,204,244.875Zm0,1.25A3.875,3.875,0,1,0,207.875,250,3.876,3.876,0,0,0,204,246.125Z" transform="translate(-192 -243.875)"></path>
                        </svg>