<svg width="17" height="17" viewBox="0 0 17 17" fill="none" xmlns="http://www.w3.org/2000/svg">
<rect x="0.600098" y="0.422852" width="16" height="16" rx="8" fill="#D9D9D9"/>
<g opacity="0.4">
<mask id="path-2-inside-1_1_28131" fill="white">
<path d="M0.600098 8.42285C0.600098 4.00457 4.18182 0.422852 8.6001 0.422852C13.0184 0.422852 16.6001 4.00457 16.6001 8.42285C16.6001 12.8411 13.0184 16.4229 8.6001 16.4229C4.18182 16.4229 0.600098 12.8411 0.600098 8.42285Z"/>
</mask>
<path d="M8.6001 15.4229C4.7341 15.4229 1.6001 12.2888 1.6001 8.42285H-0.399902C-0.399902 13.3934 3.62953 17.4229 8.6001 17.4229V15.4229ZM15.6001 8.42285C15.6001 12.2888 12.4661 15.4229 8.6001 15.4229V17.4229C13.5707 17.4229 17.6001 13.3934 17.6001 8.42285H15.6001ZM8.6001 1.42285C12.4661 1.42285 15.6001 4.55686 15.6001 8.42285H17.6001C17.6001 3.45229 13.5707 -0.577148 8.6001 -0.577148V1.42285ZM8.6001 -0.577148C3.62953 -0.577148 -0.399902 3.45229 -0.399902 8.42285H1.6001C1.6001 4.55686 4.7341 1.42285 8.6001 1.42285V-0.577148Z" fill="black" mask="url(#path-2-inside-1_1_28131)"/>
</g>
</svg>
