<svg width="26" height="26" viewBox="0 0 26 26" fill="none" xmlns="http://www.w3.org/2000/svg">
<g clip-path="url(#clip0_1_17524)">
<path d="M5.88989 16.0879C7.54675 16.0879 8.88989 14.7447 8.88989 13.0879C8.88989 11.431 7.54675 10.0879 5.88989 10.0879C4.23304 10.0879 2.88989 11.431 2.88989 13.0879C2.88989 14.7447 4.23304 16.0879 5.88989 16.0879Z" stroke="black" stroke-width="2" stroke-miterlimit="10"/>
<path d="M19.043 8.08789C20.6998 8.08789 22.043 6.74474 22.043 5.08789C22.043 3.43104 20.6998 2.08789 19.043 2.08789C17.3861 2.08789 16.043 3.43104 16.043 5.08789C16.043 6.74474 17.3861 8.08789 19.043 8.08789Z" stroke="black" stroke-width="2" stroke-miterlimit="10"/>
<path d="M19.043 24.0879C20.6998 24.0879 22.043 22.7447 22.043 21.0879C22.043 19.431 20.6998 18.0879 19.043 18.0879C17.3861 18.0879 16.043 19.431 16.043 21.0879C16.043 22.7447 17.3861 24.0879 19.043 24.0879Z" stroke="black" stroke-width="2" stroke-miterlimit="10"/>
<path d="M8.479 11.5135L16.89 6.39746" stroke="black" stroke-width="2" stroke-miterlimit="10"/>
<path d="M16.89 19.6463L8.479 14.5303" stroke="black" stroke-width="2" stroke-miterlimit="10"/>
</g>
<defs>
<clipPath id="clip0_1_17524">
<rect width="26" height="26" fill="white"/>
</clipPath>
</defs>
</svg>
