<svg width="205" height="24" viewBox="0 0 205 24" fill="none" xmlns="http://www.w3.org/2000/svg">
<g clip-path="url(#clip0_1_6)">
<g clip-path="url(#clip1_1_6)">
<path d="M6.27 17.994C4.818 17.994 3.59333 17.719 2.596 17.169C1.59867 16.619 0.733333 15.9333 0 15.112L2.728 12.956C3.13867 13.66 3.64467 14.199 4.246 14.573C4.84733 14.947 5.51467 15.134 6.248 15.134C7.04 15.134 7.645 14.914 8.063 14.474C8.481 14.034 8.69 13.5353 8.69 12.978C8.69 12.6407 8.59467 12.3547 8.404 12.12C8.21333 11.8853 7.964 11.6837 7.656 11.515C7.348 11.3463 6.99233 11.196 6.589 11.064C6.18567 10.932 5.77133 10.8 5.346 10.668C4.80333 10.492 4.26067 10.3013 3.718 10.096C3.17533 9.89065 2.68767 9.61565 2.255 9.27099C1.82233 8.92632 1.47033 8.50099 1.199 7.99499C0.927667 7.48899 0.792 6.85465 0.792 6.09199C0.792 5.44665 0.924 4.84532 1.188 4.28799C1.452 3.73065 1.82233 3.24299 2.299 2.82499C2.77567 2.40699 3.34033 2.08065 3.993 1.84599C4.64567 1.61132 5.35333 1.49399 6.116 1.49399C6.76133 1.49399 7.34433 1.55265 7.865 1.66999C8.38567 1.78732 8.86233 1.94865 9.295 2.15399C9.72767 2.35932 10.1237 2.60499 10.483 2.89099C10.8423 3.17699 11.1833 3.48865 11.506 3.82599L9.042 5.69599C8.35267 4.66932 7.38467 4.15599 6.138 4.15599C5.40467 4.15599 4.84733 4.33199 4.466 4.68399C4.08467 5.03599 3.894 5.46865 3.894 5.98199C3.894 6.30465 3.982 6.57599 4.158 6.79599C4.334 7.01599 4.57233 7.21032 4.873 7.37899C5.17367 7.54766 5.522 7.69799 5.918 7.82999C6.314 7.96199 6.732 8.10132 7.172 8.24799C7.71467 8.42399 8.261 8.62565 8.811 8.85299C9.361 9.08032 9.85967 9.37365 10.307 9.73299C10.7543 10.0923 11.1173 10.5323 11.396 11.053C11.6747 11.5737 11.814 12.2227 11.814 13C11.814 13.6307 11.6893 14.2467 11.44 14.848C11.1907 15.4493 10.8313 15.981 10.362 16.443C9.89267 16.905 9.31333 17.279 8.624 17.565C7.93467 17.851 7.15 17.994 6.27 17.994Z" fill="#010101"/>
<path d="M19.8028 18.038C19.0255 18.038 18.2591 17.8877 17.5038 17.587C16.7485 17.2863 16.0701 16.85 15.4688 16.278C14.8675 15.706 14.3835 15.0057 14.0168 14.177C13.6501 13.3483 13.4668 12.406 13.4668 11.35C13.4668 10.2793 13.6465 9.32967 14.0058 8.501C14.3651 7.67233 14.8418 6.972 15.4358 6.4C16.0298 5.828 16.7118 5.39167 17.4818 5.091C18.2518 4.79033 19.0401 4.64 19.8468 4.64C20.6975 4.64 21.4821 4.80133 22.2008 5.124C22.9195 5.44667 23.5135 5.88667 23.9828 6.444V4.904H26.9528V17.774H23.9828V16.102C23.5135 16.7033 22.9121 17.1763 22.1788 17.521C21.4455 17.8657 20.6535 18.038 19.8028 18.038ZM20.2868 15.31C20.8441 15.31 21.3575 15.2073 21.8268 15.002C22.2961 14.7967 22.6995 14.5107 23.0368 14.144C23.3741 13.7773 23.6418 13.352 23.8398 12.868C24.0378 12.384 24.1368 11.8633 24.1368 11.306C24.1368 10.7633 24.0378 10.25 23.8398 9.766C23.6418 9.282 23.3741 8.86033 23.0368 8.501C22.6995 8.14167 22.2961 7.85933 21.8268 7.654C21.3575 7.44867 20.8441 7.346 20.2868 7.346C19.7441 7.346 19.2345 7.44867 18.7578 7.654C18.2811 7.85933 17.8668 8.138 17.5148 8.49C17.1628 8.842 16.8878 9.26 16.6898 9.744C16.4918 10.228 16.3928 10.7487 16.3928 11.306C16.3928 11.8633 16.4918 12.3877 16.6898 12.879C16.8878 13.3703 17.1628 13.7957 17.5148 14.155C17.8668 14.5143 18.2811 14.7967 18.7578 15.002C19.2345 15.2073 19.7441 15.31 20.2868 15.31Z" fill="#010101"/>
<path d="M29.1333 4.904H32.0813V6.4C32.492 5.85733 33.009 5.42833 33.6323 5.113C34.2556 4.79767 34.9633 4.64 35.7553 4.64C36.7673 4.64 37.6216 4.83433 38.3183 5.223C39.015 5.61167 39.554 6.158 39.9353 6.862C40.3753 6.18733 40.9583 5.64833 41.6843 5.245C42.4103 4.84167 43.2353 4.64 44.1593 4.64C45.89 4.64 47.1953 5.12033 48.0753 6.081C48.9553 7.04167 49.3953 8.358 49.3953 10.03V17.774H46.3593V10.272C46.3593 9.33333 46.1246 8.589 45.6553 8.039C45.186 7.489 44.4893 7.214 43.5653 7.214C42.7586 7.214 42.084 7.49267 41.5413 8.05C40.9986 8.60733 40.7273 9.45067 40.7273 10.58V17.774H37.7133V10.184C37.7133 9.26 37.486 8.534 37.0313 8.006C36.5766 7.478 35.902 7.214 35.0073 7.214C34.1713 7.214 33.4783 7.5 32.9283 8.072C32.3783 8.644 32.1033 9.502 32.1033 10.646V17.774H29.1333V4.904Z" fill="#010101"/>
<path d="M56.3059 18.038C54.8833 18.038 53.7026 17.7703 52.7639 17.235C51.8253 16.6997 51.0993 15.926 50.5859 14.914L53.3359 13.594C53.6439 14.1953 54.0619 14.6573 54.5899 14.98C55.1179 15.3027 55.7339 15.464 56.4379 15.464C57.1713 15.464 57.7213 15.31 58.0879 15.002C58.4546 14.694 58.6379 14.3273 58.6379 13.902C58.6379 13.6673 58.5536 13.4767 58.3849 13.33C58.2163 13.1833 57.9963 13.055 57.7249 12.945C57.4536 12.835 57.1346 12.7433 56.7679 12.67C56.4013 12.5967 56.0199 12.516 55.6239 12.428C55.0666 12.3107 54.5203 12.1713 53.9849 12.01C53.4496 11.8487 52.9693 11.625 52.5439 11.339C52.1186 11.053 51.7739 10.6863 51.5099 10.239C51.2459 9.79166 51.1139 9.23066 51.1139 8.556C51.1139 8.04266 51.2349 7.54766 51.4769 7.071C51.7189 6.59433 52.0599 6.17266 52.4999 5.806C52.9399 5.43933 53.4716 5.14966 54.0949 4.937C54.7183 4.72433 55.4113 4.618 56.1739 4.618C57.4646 4.618 58.5389 4.85633 59.3969 5.333C60.2549 5.80966 60.9333 6.45866 61.4319 7.28L58.9019 8.556C58.6379 8.10133 58.2713 7.742 57.8019 7.478C57.3326 7.214 56.7899 7.082 56.1739 7.082C55.4699 7.082 54.9493 7.22133 54.6119 7.5C54.2746 7.77866 54.1059 8.10133 54.1059 8.468C54.1059 8.89333 54.3553 9.19766 54.8539 9.381C55.3526 9.56433 56.0859 9.75866 57.0539 9.964C57.5819 10.0667 58.1136 10.2023 58.6489 10.371C59.1843 10.5397 59.6719 10.767 60.1119 11.053C60.5519 11.339 60.9076 11.7057 61.1789 12.153C61.4503 12.6003 61.5859 13.1613 61.5859 13.836C61.5859 14.2907 61.4833 14.7637 61.2779 15.255C61.0726 15.7463 60.7536 16.201 60.3209 16.619C59.8883 17.037 59.3419 17.378 58.6819 17.642C58.0219 17.906 57.2299 18.038 56.3059 18.038Z" fill="#010101"/>
<path d="M74.7224 17.774H71.7744V16.3C71.3638 16.8427 70.8504 17.268 70.2344 17.576C69.6184 17.884 68.8998 18.038 68.0784 18.038C66.5531 18.038 65.3467 17.554 64.4594 16.586C63.5721 15.618 63.1284 14.2687 63.1284 12.538V4.90399H66.1424V12.23C66.1424 13.2273 66.3661 14.0157 66.8134 14.595C67.2608 15.1743 67.9537 15.464 68.8924 15.464C69.7137 15.464 70.3958 15.1633 70.9384 14.562C71.4811 13.9607 71.7524 13.0953 71.7524 11.966V4.90399H74.7224V17.774Z" fill="#010101"/>
<path d="M76.9248 4.904H79.8728V6.488C80.2981 5.93067 80.8371 5.48333 81.4898 5.146C82.1425 4.80867 82.8868 4.64 83.7228 4.64C85.3215 4.64 86.5718 5.124 87.4738 6.092C88.3758 7.06 88.8268 8.40933 88.8268 10.14V17.774H85.8128V10.448C85.8128 9.45067 85.5708 8.66233 85.0868 8.083C84.6028 7.50367 83.8768 7.214 82.9088 7.214C82.0581 7.214 81.3431 7.51467 80.7638 8.116C80.1845 8.71733 79.8948 9.58267 79.8948 10.712V17.774H76.9248V4.904Z" fill="#010101"/>
<path d="M101.039 16.058C100.57 16.674 99.9688 17.158 99.2355 17.51C98.5021 17.862 97.7028 18.038 96.8375 18.038C96.0601 18.038 95.2938 17.8877 94.5385 17.587C93.7831 17.2863 93.1048 16.85 92.5035 16.278C91.9021 15.706 91.4181 15.0057 91.0515 14.177C90.6848 13.3483 90.5015 12.406 90.5015 11.35C90.5015 10.2793 90.6811 9.32967 91.0405 8.501C91.3998 7.67233 91.8765 6.972 92.4705 6.4C93.0645 5.828 93.7465 5.39167 94.5165 5.091C95.2865 4.79033 96.0748 4.64 96.8815 4.64C97.7321 4.64 98.5168 4.81233 99.2355 5.157C99.9541 5.50167 100.548 5.96733 101.017 6.554V4.904H103.987V17.444C103.987 18.3533 103.844 19.204 103.558 19.996C103.272 20.788 102.851 21.481 102.293 22.075C101.736 22.669 101.043 23.1383 100.214 23.483C99.3858 23.8277 98.4288 24 97.3435 24C96.5075 24 95.7485 23.9083 95.0665 23.725C94.3845 23.5417 93.7721 23.285 93.2295 22.955C92.6868 22.625 92.2101 22.2363 91.7995 21.789C91.3888 21.3417 91.0368 20.8467 90.7435 20.304L93.3835 18.698C93.8528 19.5633 94.3808 20.2087 94.9675 20.634C95.5541 21.0593 96.3608 21.272 97.3875 21.272C97.9448 21.272 98.4508 21.1693 98.9055 20.964C99.3601 20.7587 99.7451 20.4873 100.06 20.15C100.376 19.8127 100.618 19.4167 100.786 18.962C100.955 18.5073 101.039 18.038 101.039 17.554V16.058ZM97.3215 15.31C97.8788 15.31 98.3921 15.2073 98.8615 15.002C99.3308 14.7967 99.7341 14.5107 100.071 14.144C100.409 13.7773 100.676 13.352 100.874 12.868C101.072 12.384 101.171 11.8633 101.171 11.306C101.171 10.7633 101.072 10.25 100.874 9.766C100.676 9.282 100.409 8.86033 100.071 8.501C99.7341 8.14167 99.3308 7.85933 98.8615 7.654C98.3921 7.44867 97.8788 7.346 97.3215 7.346C96.7788 7.346 96.2691 7.44867 95.7925 7.654C95.3158 7.85933 94.9015 8.138 94.5495 8.49C94.1975 8.842 93.9225 9.26 93.7245 9.744C93.5265 10.228 93.4275 10.7487 93.4275 11.306C93.4275 11.8633 93.5265 12.3877 93.7245 12.879C93.9225 13.3703 94.1975 13.7957 94.5495 14.155C94.9015 14.5143 95.3158 14.7967 95.7925 15.002C96.2691 15.2073 96.7788 15.31 97.3215 15.31Z" fill="#010101"/>
<path d="M117.91 1.71399H120.924L126.644 17.774H123.52L122.53 14.914H116.304L115.314 17.774H112.19L117.91 1.71399ZM117.316 12.054H121.54L119.428 5.95999L117.316 12.054Z" fill="#010101"/>
<path d="M133.709 18.038C132.77 18.038 131.894 17.862 131.08 17.51C130.266 17.158 129.558 16.6813 128.957 16.08C128.356 15.4787 127.883 14.771 127.538 13.957C127.193 13.143 127.021 12.274 127.021 11.35C127.021 10.4113 127.193 9.535 127.538 8.721C127.883 7.907 128.356 7.19567 128.957 6.587C129.558 5.97833 130.266 5.50167 131.08 5.157C131.894 4.81233 132.77 4.64 133.709 4.64C134.428 4.64 135.106 4.739 135.744 4.937C136.382 5.135 136.965 5.41 137.493 5.762C138.021 6.114 138.483 6.532 138.879 7.016C139.275 7.5 139.598 8.03533 139.847 8.622L137.185 9.744C136.892 9.04 136.441 8.479 135.832 8.061C135.223 7.643 134.523 7.434 133.731 7.434C133.188 7.434 132.686 7.53667 132.224 7.742C131.762 7.94733 131.359 8.226 131.014 8.578C130.669 8.93 130.402 9.34433 130.211 9.821C130.02 10.2977 129.925 10.8073 129.925 11.35C129.925 11.878 130.02 12.3803 130.211 12.857C130.402 13.3337 130.669 13.748 131.014 14.1C131.359 14.452 131.766 14.7307 132.235 14.936C132.704 15.1413 133.21 15.244 133.753 15.244C134.589 15.244 135.304 15.0203 135.898 14.573C136.492 14.1257 136.936 13.55 137.229 12.846L139.891 13.99C139.642 14.5767 139.319 15.1193 138.923 15.618C138.527 16.1167 138.069 16.5457 137.548 16.905C137.027 17.2643 136.444 17.543 135.799 17.741C135.154 17.939 134.457 18.038 133.709 18.038Z" fill="#010101"/>
<path d="M147.55 18.038C146.611 18.038 145.735 17.862 144.921 17.51C144.107 17.158 143.399 16.6813 142.798 16.08C142.196 15.4787 141.723 14.771 141.379 13.957C141.034 13.143 140.862 12.274 140.862 11.35C140.862 10.4113 141.034 9.535 141.379 8.721C141.723 7.907 142.196 7.19567 142.798 6.587C143.399 5.97833 144.107 5.50167 144.921 5.157C145.735 4.81233 146.611 4.64 147.55 4.64C148.268 4.64 148.947 4.739 149.585 4.937C150.223 5.135 150.806 5.41 151.334 5.762C151.862 6.114 152.324 6.532 152.72 7.016C153.116 7.5 153.438 8.03533 153.688 8.622L151.026 9.744C150.732 9.04 150.281 8.479 149.673 8.061C149.064 7.643 148.364 7.434 147.572 7.434C147.029 7.434 146.527 7.53667 146.065 7.742C145.603 7.94733 145.199 8.226 144.855 8.578C144.51 8.93 144.242 9.34433 144.052 9.821C143.861 10.2977 143.766 10.8073 143.766 11.35C143.766 11.878 143.861 12.3803 144.052 12.857C144.242 13.3337 144.51 13.748 144.855 14.1C145.199 14.452 145.606 14.7307 146.076 14.936C146.545 15.1413 147.051 15.244 147.594 15.244C148.43 15.244 149.145 15.0203 149.739 14.573C150.333 14.1257 150.776 13.55 151.07 12.846L153.732 13.99C153.482 14.5767 153.16 15.1193 152.764 15.618C152.368 16.1167 151.909 16.5457 151.389 16.905C150.868 17.2643 150.285 17.543 149.64 17.741C148.994 17.939 148.298 18.038 147.55 18.038Z" fill="#010101"/>
<path d="M161.368 18.038C160.444 18.038 159.575 17.8657 158.761 17.521C157.947 17.1763 157.239 16.6997 156.638 16.091C156.037 15.4823 155.564 14.771 155.219 13.957C154.874 13.143 154.702 12.274 154.702 11.35C154.702 10.4113 154.874 9.535 155.219 8.721C155.564 7.907 156.037 7.19567 156.638 6.587C157.239 5.97833 157.947 5.50167 158.761 5.157C159.575 4.81233 160.444 4.64 161.368 4.64C162.292 4.64 163.157 4.81233 163.964 5.157C164.771 5.50167 165.478 5.97833 166.087 6.587C166.696 7.19567 167.172 7.907 167.517 8.721C167.862 9.535 168.034 10.4113 168.034 11.35C168.034 12.274 167.862 13.143 167.517 13.957C167.172 14.771 166.696 15.4823 166.087 16.091C165.478 16.6997 164.771 17.1763 163.964 17.521C163.157 17.8657 162.292 18.038 161.368 18.038ZM161.368 15.244C161.896 15.244 162.387 15.1413 162.842 14.936C163.297 14.7307 163.693 14.452 164.03 14.1C164.367 13.748 164.631 13.3337 164.822 12.857C165.013 12.3803 165.108 11.878 165.108 11.35C165.108 10.8073 165.013 10.2977 164.822 9.821C164.631 9.34433 164.367 8.93 164.03 8.578C163.693 8.226 163.297 7.94733 162.842 7.742C162.387 7.53667 161.896 7.434 161.368 7.434C160.84 7.434 160.345 7.53667 159.883 7.742C159.421 7.94733 159.025 8.226 158.695 8.578C158.365 8.93 158.105 9.34433 157.914 9.821C157.723 10.2977 157.628 10.8073 157.628 11.35C157.628 11.878 157.723 12.3803 157.914 12.857C158.105 13.3337 158.365 13.748 158.695 14.1C159.025 14.452 159.421 14.7307 159.883 14.936C160.345 15.1413 160.84 15.244 161.368 15.244Z" fill="#010101"/>
<path d="M181.303 17.774H178.355V16.3C177.944 16.8427 177.431 17.268 176.815 17.576C176.199 17.884 175.48 18.038 174.659 18.038C173.134 18.038 171.927 17.554 171.04 16.586C170.153 15.618 169.709 14.2687 169.709 12.538V4.90399H172.723V12.23C172.723 13.2273 172.947 14.0157 173.394 14.595C173.841 15.1743 174.534 15.464 175.473 15.464C176.294 15.464 176.976 15.1633 177.519 14.562C178.062 13.9607 178.333 13.0953 178.333 11.966V4.90399H181.303V17.774Z" fill="#010101"/>
<path d="M183.505 4.904H186.453V6.488C186.879 5.93067 187.418 5.48333 188.07 5.146C188.723 4.80867 189.467 4.64 190.303 4.64C191.902 4.64 193.152 5.124 194.054 6.092C194.956 7.06 195.407 8.40933 195.407 10.14V17.774H192.393V10.448C192.393 9.45067 192.151 8.66233 191.667 8.083C191.183 7.50367 190.457 7.214 189.489 7.214C188.639 7.214 187.924 7.51467 187.344 8.116C186.765 8.71733 186.475 9.58267 186.475 10.712V17.774H183.505V4.904Z" fill="#010101"/>
<path d="M196.488 4.90399H198.688V2.94599L201.68 0.899994V4.90399H204.298V7.56599H201.68V12.384C201.68 12.9413 201.71 13.3923 201.768 13.737C201.827 14.0817 201.948 14.3457 202.131 14.529C202.315 14.7123 202.579 14.8333 202.923 14.892C203.268 14.9507 203.726 14.98 204.298 14.98V17.774H203.88C202.883 17.774 202.051 17.686 201.383 17.51C200.716 17.334 200.184 17.037 199.788 16.619C199.392 16.201 199.11 15.651 198.941 14.969C198.773 14.287 198.688 13.4327 198.688 12.406V7.56599H196.488V4.90399Z" fill="#010101"/>
</g>
</g>
<defs>
<clipPath id="clip0_1_6">
<rect width="205" height="24" fill="white"/>
</clipPath>
<clipPath id="clip1_1_6">
<rect width="205" height="24" fill="white"/>
</clipPath>
</defs>
</svg>
