<svg width="25" height="25" viewBox="0 0 25 25" fill="none" xmlns="http://www.w3.org/2000/svg">
<g id="icon-svg-search" clip-path="url(#clip0_2_15)">
<path id="Vector" d="M1.15625 0.828125H24.1562V23.8281H1.15625V0.828125Z" />
<path id="Vector_2" d="M17.1233 15.9614L16.8165 16.3134L17.1467 16.6435L23.1061 22.602L22.9292 22.7789L16.9697 16.8204L16.6394 16.4901L16.2874 16.7972C15.2374 17.7136 13.981 18.3619 12.6257 18.6866C11.2705 19.0113 9.85667 19.0027 8.50541 18.6617C7.15415 18.3206 5.90566 17.6572 4.86682 16.7282C3.82797 15.7992 3.02971 14.6323 2.54037 13.3274C2.05103 12.0225 1.88519 10.6184 2.05703 9.23542C2.22888 7.85242 2.7333 6.53166 3.52711 5.38619C4.32092 4.24072 5.38048 3.30466 6.61509 2.65815C7.8497 2.01165 9.22258 1.67394 10.6162 1.67394H10.8563L10.8577 1.67217C12.4306 1.71521 13.9635 2.18786 15.2892 3.041C16.6816 3.93703 17.7866 5.21489 18.4723 6.72196C19.158 8.22904 19.3955 9.90163 19.1562 11.54C18.917 13.1784 18.2113 14.7133 17.1233 15.9614ZM10.6201 1.91895C8.96378 1.91916 7.34467 2.41051 5.96754 3.33089C4.59042 4.25128 3.51714 5.55936 2.88342 7.08971C2.2497 8.62006 2.084 10.304 2.40727 11.9285C2.73054 13.553 3.52827 15.0452 4.69957 16.2163C5.87088 17.3875 7.36316 18.185 8.98773 18.5081C10.6123 18.8312 12.2962 18.6652 13.8264 18.0313C15.3567 17.3974 16.6646 16.324 17.5849 14.9467C18.5051 13.5695 18.9962 11.9503 18.9962 10.2939C18.9962 9.19404 18.7796 8.10489 18.3586 7.08872C17.9377 6.07255 17.3207 5.14926 16.5429 4.37155C15.7651 3.59385 14.8417 2.97696 13.8254 2.55614C12.8092 2.13532 11.7201 1.91881 10.6201 1.91895Z" fill="black" stroke="black"/>
</g>
<defs>
<clipPath id="clip0_2_15">
<rect width="24" height="24" fill="white" transform="translate(0.65625 0.328125)"/>
</clipPath>
</defs>
</svg>
